<svg xmlns="http://www.w3.org/2000/svg" xmlns:xlink="http://www.w3.org/1999/xlink" version="1.1" x="0px" y="0px" viewBox="0 0 100 88" enable-background="new 0 0 100 100" xml:space="preserve"><g><circle cx="32.511" cy="47.668" r="4.068"/><circle cx="67.555" cy="47.668" r="4.068"/><path d="M40.558,61.266c-0.568-0.57-1.49-0.57-2.058,0c-0.569,0.57-0.569,1.49,0,2.06c3.08,3.081,7.175,4.776,11.532,4.776   c4.354,0,8.45-1.695,11.53-4.776c0.572-0.569,0.572-1.489,0.002-2.06c-0.568-0.57-1.49-0.57-2.06,0   c-2.187,2.185-4.987,3.519-8.016,3.844v-5.412c1.09-0.536,1.842-1.657,1.842-2.959c0-1.819-1.478-3.299-3.298-3.299   c-1.824,0-3.3,1.479-3.3,3.299c0,1.302,0.752,2.423,1.842,2.959v5.412C45.548,64.784,42.744,63.45,40.558,61.266z"/><path d="M50.033,0.001C22.4,0.001,0,22.401,0,50.034c0,14.892,6.514,28.257,16.839,37.422V60.234c0-7.869,2.744-15.093,7.32-20.782   V20.63c0-4.544,3.684-8.227,8.228-8.227c4.543,0,8.227,3.683,8.227,8.227v7.777c2.986-0.883,6.145-1.364,9.418-1.364   c3.271,0,6.432,0.482,9.416,1.364V20.63c0-4.544,3.684-8.227,8.229-8.227c4.544,0,8.226,3.683,8.226,8.227H75.9v18.821   c4.578,5.69,7.322,12.914,7.322,20.783V87.46c10.328-9.165,16.844-22.531,16.844-37.426C100.066,22.401,77.666,0.001,50.033,0.001z   "/></g></svg>