<svg width="125" height="125" xmlns="http://www.w3.org/2000/svg">
 <defs>
  <filter height="200%" width="200%" y="-50%" x="-50%" id="svg_8_blur">
   <feGaussianBlur stdDeviation="6.1" in="SourceGraphic"/>
  </filter>
 </defs>
 <g>
  <title>background</title>
  <rect fill="none" id="canvas_background" height="127" width="127" y="-1" x="-1"/>
 </g>
 <g>
  <title>Layer 1</title>
  <g stroke="null" id="svg_1">
   <path stroke="null" filter="url(#svg_8_blur)" stroke-width="0" opacity="0.59" id="svg_8" d="m61.667042,22.018373c-26.804928,0 -48.533673,21.728743 -48.533673,48.533674c0,14.445747 6.318795,27.410225 16.334388,36.300591l0,-26.406265c0,-7.633179 2.661772,-14.640701 7.100645,-20.159218l0,-18.257965c0,-4.407837 3.573601,-7.980465 7.981434,-7.980465c4.406864,0 7.980465,3.572628 7.980465,7.980465l0,7.543941c2.896526,-0.856533 5.960861,-1.32312 9.135769,-1.32312c3.172974,0 6.239265,0.467548 9.133842,1.32312l0,-7.543941c0,-4.407837 3.573593,-7.980465 7.982399,-7.980465c4.407837,0 7.9795,3.572628 7.9795,7.980465l-0.002914,0l0,18.256996c4.440811,5.519485 7.102585,12.527008 7.102585,20.160187l0,26.410141c10.018509,-8.890373 16.339233,-21.85582 16.339233,-36.304466c0,-26.804932 -21.728737,-48.533674 -48.533672,-48.533674z"/>
   <path stroke="null" fill="#ffffff" id="svg_5" d="m62.5,18.7705c-27.633003,0 -50.033001,22.399998 -50.033001,50.033005c0,14.892006 6.514,28.256996 16.839001,37.422005l0,-27.222015c0,-7.868996 2.743999,-15.092995 7.32,-20.781994l0,-18.821999c0,-4.543999 3.683998,-8.227001 8.228001,-8.227001c4.542999,0 8.226997,3.683002 8.226997,8.227001l0,7.777c2.986,-0.883003 6.145,-1.364002 9.418003,-1.364002c3.271004,0 6.431999,0.481998 9.416,1.364002l0,-7.777c0,-4.543999 3.683998,-8.227001 8.229004,-8.227001c4.543999,0 8.225998,3.683002 8.225998,8.227001l-0.002998,0l0,18.820999c4.577995,5.689999 7.321999,12.913998 7.321999,20.782993l0,27.226006c10.328003,-9.165001 16.844002,-22.530991 16.844002,-37.425995c0,-27.633007 -22.400002,-50.033005 -50.033005,-50.033005z"/>
   <circle stroke="null" id="svg_2" r="4.068" cy="66.437501" cx="44.977999"/>
   <circle stroke="null" id="svg_3" r="4.068" cy="66.437501" cx="80.021999"/>
   <path stroke="null" id="svg_4" d="m53.024998,80.035507c-0.567997,-0.570007 -1.489998,-0.570007 -2.057999,0c-0.569,0.569992 -0.569,1.48999 0,2.059998c3.080002,3.080994 7.174999,4.775986 11.532001,4.775986c4.354004,0 8.449997,-1.694992 11.529999,-4.775986c0.571999,-0.569 0.571999,-1.488998 0.001999,-2.059998c-0.568001,-0.570007 -1.489998,-0.570007 -2.059998,0c-2.186996,2.18499 -4.987,3.518997 -8.016003,3.843987l0,-5.411995c1.09,-0.535995 1.842007,-1.657005 1.842007,-2.959c0,-1.819 -1.478004,-3.298996 -3.298004,-3.298996c-1.824001,0 -3.300003,1.479004 -3.300003,3.298996c0,1.301994 0.752003,2.423004 1.842003,2.959l0,5.411995c-3.026001,-0.325996 -5.830002,-1.659996 -8.016003,-3.843987z"/>
  </g>
 </g>
</svg>